<svg width="256" height="256" viewBox="0 0 256 256" fill="none" xmlns="http://www.w3.org/2000/svg">
  <!-- Background circle with gradient -->
  <defs>
    <linearGradient id="bgGradient" x1="0%" y1="0%" x2="100%" y2="100%">
      <stop offset="0%" style="stop-color:#0B69FF;stop-opacity:1" />
      <stop offset="100%" style="stop-color:#8A6CFF;stop-opacity:1" />
    </linearGradient>
    <linearGradient id="clockGradient" x1="0%" y1="0%" x2="100%" y2="100%">
      <stop offset="0%" style="stop-color:#FFFFFF;stop-opacity:1" />
      <stop offset="100%" style="stop-color:#F0F8FF;stop-opacity:1" />
    </linearGradient>
    <filter id="glow" x="-50%" y="-50%" width="200%" height="200%">
      <feGaussianBlur stdDeviation="3" result="coloredBlur"/>
      <feMerge> 
        <feMergeNode in="coloredBlur"/>
        <feMergeNode in="SourceGraphic"/>
      </feMerge>
    </filter>
  </defs>
  
  <!-- Background circle -->
  <circle cx="128" cy="128" r="120" fill="url(#bgGradient)" stroke="rgba(255,255,255,0.2)" stroke-width="4"/>
  
  <!-- Inner circle for glassmorphism effect -->
  <circle cx="128" cy="128" r="100" fill="rgba(255,255,255,0.1)" stroke="rgba(255,255,255,0.3)" stroke-width="2"/>
  
  <!-- Clock face -->
  <circle cx="128" cy="128" r="80" fill="url(#clockGradient)" stroke="rgba(11,105,255,0.3)" stroke-width="3"/>
  
  <!-- Clock center dot -->
  <circle cx="128" cy="128" r="6" fill="#0B69FF"/>
  
  <!-- Hour markers -->
  <g stroke="#0B69FF" stroke-width="3" stroke-linecap="round">
    <!-- 12 o'clock -->
    <line x1="128" y1="50" x2="128" y2="60"/>
    <!-- 3 o'clock -->
    <line x1="206" y1="128" x2="196" y2="128"/>
    <!-- 6 o'clock -->
    <line x1="128" y1="206" x2="128" y2="196"/>
    <!-- 9 o'clock -->
    <line x1="50" y1="128" x2="60" y2="128"/>
  </g>
  
  <!-- Minor hour markers -->
  <g stroke="#8A6CFF" stroke-width="2" stroke-linecap="round" opacity="0.6">
    <!-- 1, 2, 4, 5, 7, 8, 10, 11 o'clock positions -->
    <line x1="180" y1="76" x2="175" y2="81"/>
    <line x1="180" y1="180" x2="175" y2="175"/>
    <line x1="76" y1="76" x2="81" y2="81"/>
    <line x1="76" y1="180" x2="81" y2="175"/>
    <line x1="76" y1="180" x2="81" y2="175"/>
    <line x1="180" y1="76" x2="175" y2="81"/>
    <line x1="180" y1="180" x2="175" y2="175"/>
    <line x1="76" y1="76" x2="81" y2="81"/>
  </g>
  
  <!-- Hour hand (pointing to 2) -->
  <line x1="128" y1="128" x2="160" y2="100" stroke="#0B69FF" stroke-width="6" stroke-linecap="round" filter="url(#glow)"/>
  
  <!-- Minute hand (pointing to 10) -->
  <line x1="128" y1="128" x2="100" y2="160" stroke="#8A6CFF" stroke-width="4" stroke-linecap="round" filter="url(#glow)"/>
  
  <!-- Play button overlay (indicating active tracking) -->
  <g transform="translate(180, 180)">
    <circle cx="0" cy="0" r="20" fill="rgba(255,255,255,0.9)" stroke="#0B69FF" stroke-width="2"/>
    <polygon points="-6,-8 -6,8 8,0" fill="#0B69FF"/>
  </g>
  
  <!-- Subtle shadow -->
  <circle cx="130" cy="130" r="120" fill="none" stroke="rgba(0,0,0,0.1)" stroke-width="2"/>
</svg>
